# xmcd
#
# Track frame offsets: 
#        150
#        7524
#        17627
#        28460
#        40421
#        54975
#        89904
#        109725
#        120953
#        129442
#        142258
#        154338
#        162306
#        181291
#        193030
#        196509
#        220197
#        227104
#        236400
#
# Disc length: 3287 seconds
#
# Revision: 0
# Processed by: cddbd v1.5.2PL0 Copyright (c) Steve Scherf et al.
# Submitted via: ExactAudioCopy v1.0b3
#
DISCID=fe0cd513
DTITLE=八代亜紀 - 八周年記念 八代亜紀リサイタル Disc 1 TECE-3169-70
DYEAR=1900
DGENRE=Blues
TTITLE0=MC 
TTITLE1=すみだ川 
TTITLE2=下町育ち
TTITLE3=おんなの涙~女だから~女ごころ <メドレー演奏:インストゥルメンタル>  
TTITLE4=MC 
TTITLE5=ムーランルージュ物語
TTITLE6=ダンシング・オールナイト
TTITLE7=順子
TTITLE8=MC 
TTITLE9=新宿・みなと町 
TTITLE10=宗右衛門町ブルース
TTITLE11=MC 
TTITLE12=恋あざみ 
TTITLE13=酒場の花 
TTITLE14=MC
TTITLE15=石狩挽歌
TTITLE16=MC
TTITLE17=なみだ恋 
TTITLE18=愛の執念
EXTD=
EXTT0=
EXTT1=
EXTT2=
EXTT3=
EXTT4=
EXTT5=
EXTT6=
EXTT7=
EXTT8=
EXTT9=
EXTT10=
EXTT11=
EXTT12=
EXTT13=
EXTT14=
EXTT15=
EXTT16=
EXTT17=
EXTT18=
PLAYORDER=
